# xmcd
#
# Track frame offsets: 
#        150
#        21121
#        39227
#        57095
#        70181
#        85174
#        103447
#        116092
#        133672
#        156521
#        172468
#        188629
#        205072
#        218189
#        230249
#
# Disc length: 3356 seconds
#
# Revision: 0
# Processed by: cddbd v1.5.2PL0 Copyright (c) Steve Scherf et al.
# Submitted via: ExactAudioCopy v0.99pb3
#
DISCID=e00d1a0f
DTITLE=Larry's Blues Band - Good Morning Blues
DYEAR=2002
DGENRE=Blues
TTITLE0=Good Mornin' Blues
TTITLE1=Me And My Son
TTITLE2=Blues Doctor
TTITLE3=30 Years
TTITLE4=Stumble
TTITLE5=I Loved Another Woman
TTITLE6=Lonely Place
TTITLE7=She's A Woman
TTITLE8=Little Red Rooster
TTITLE9=500 Miles
TTITLE10=Politican
TTITLE11=Blow Wind Blow
TTITLE12=Run Run Rudolf
TTITLE13=Snowy Wood
TTITLE14=Sittin' On Top Of The World
EXTD=
EXTT0=
EXTT1=
EXTT2=
EXTT3=
EXTT4=
EXTT5=
EXTT6=
EXTT7=
EXTT8=
EXTT9=
EXTT10=
EXTT11=
EXTT12=
EXTT13=
EXTT14=
PLAYORDER=
